{"title":"Wolfman-TSLine-GhostmanGreenfrogr-Ã‚Âº(ÃƒË†LÃƒÅ½TE)Ã‚ÂºÃ‚Â®G[ExtraTorrent]","uid":5371077,"size":735023104,"categoryP":"video","categoryS":"movies","magnet":"?xt=urn:btih:8d55d4779b58a472c8aa57f341036779851d8632&amp;dn=Wolfman-TSLine-GhostmanGreenfrogr-%C3%82%C2%BA%28%C3%83%CB%86L%C3%83%C5%BDTE%29%C3%82%C2%BA%C3%82%C2%AEG%5BExtraTorrent%5D&amp;tr=udp%3A%2F%2Ftracker.openbittorrent.com%3A80&amp;tr=udp%3A%2F%2Fopen.demonii.com%3A1337&amp;tr=udp%3A%2F%2Ftracker.coppersurfer.tk%3A6969&amp;tr=udp%3A%2F%2Fexodus.desync.com%3A6969","seeders":0,"leechers":1,"uploader":"raymondhome","files":-1,"time":1266424651,"description":"Love for All and Sharing is the first step to solving all the problems of humanity.\n\nWebsites I want to share.\n\n    &lt;a href=&quot;\nhttp://www.shareintl.org/&quot; rel=&quot;nofollow&quot; target=&quot;_NEW&quot;&gt;\nhttp://www.shareintl.org/&lt;/a&gt;\n\n    &lt;a href=&quot;\nhttp://www.lightmiddleway.com&quot; rel=&quot;nofollow&quot; target=&quot;_NEW&quot;&gt;\nhttp://www.lightmiddleway.com&lt;/a&gt;\n\n\nThank you very much\n\nNo credit for me...credit to EVERYONE for sharing\n &lt;a href=&quot;\nhttp://thepiratebay.se/user/raymondhome/&quot; rel=&quot;nofollow&quot; target=&quot;_NEW&quot;&gt;\nhttp://thepiratebay.se/user/raymondhome/&lt;/a&gt;\n\nPLOT\nUpon his return to his ancestral homeland, an American man (Del Toro) is bitten, and subsequently cursed by, a werewolf.\n\nDuration : 1h 31mn\nVideo\nID : 0\nFormat : MPEG-4 Visual\nFormat profile : AdvancedSimple@L5\nFormat settings, BVOP : Yes\nFormat settings, QPel : No\nFormat settings, GMC : No warppoints\nFormat settings, Matrix : Default (H.263)\nMuxing mode : Packed bitstream\nCodec ID : XVID\nCodec ID/Hint : XviD\nDuration : 1h 31mn\nBit rate : 840 Kbps\nWidth : 704 pixels\nHeight : 384 pixels\nDisplay aspect ratio : 16:9\nFrame rate : 25.000 fps\nResolution : 24 bits\nColorimetry : 4:2:0\nScan type : Progressive\nBits/(Pixel*Frame) : 0.124\nStream size : 550 MiB (79%)\nWriting library : XviD 1.2.1 (UTC 2008-12-04)\nAudio\nID : 1\nFormat : MPEG Audio\nFormat version : Version 1\nFormat profile : Layer 3\nCodec ID : 55\nCodec ID/Hint : MP3\nDuration : 1h 31mn\nBit rate mode : Variable\nBit rate : 217 Kbps\nChannel(s) : 2 channels\nSampling rate : 48.0 KHz\nResolution : 16 bits\nStream size : 142 MiB (20%)\nAlignment : Aligned on interleaves\nInterleave, duration : 24 ms (0.60 video frame)\nInterleave, preload duration : 517 ms\n\nENCODER: ghostman\nAUDIO &amp; SYNCHER: greenfrogr\n\ncredit ghostman BIG TIME &amp; Greenfrogr &amp; to all the people who made it possible for me to share this with everyone\n\n*****help what we can with haiti...the world is ONE big family*****","torrent":{"xt":"urn:btih:8d55d4779b58a472c8aa57f341036779851d8632","amp;dn":"Wolfman-TSLine-GhostmanGreenfrogr-%C3%82%C2%BA%28%C3%83%CB%86L%C3%83%C5%BDTE%29%C3%82%C2%BA%C3%82%C2%AEG%5BExtraTorrent%5D","amp;tr":["udp%3A%2F%2Ftracker.openbittorrent.com%3A80","udp%3A%2F%2Fopen.demonii.com%3A1337","udp%3A%2F%2Ftracker.coppersurfer.tk%3A6969","udp%3A%2F%2Fexodus.desync.com%3A6969"],"infoHash":"8d55d4779b58a472c8aa57f341036779851d8632","infoHashBuffer":{"type":"Buffer","data":[141,85,212,119,155,88,164,114,200,170,87,243,65,3,103,121,133,29,134,50]},"announce":[],"urlList":[]}}